<?xml version="1.0" encoding="utf-8"?>
<!-- Generator: Adobe Illustrator 19.2.1, SVG Export Plug-In . SVG Version: 6.00 Build 0)  -->
<svg version="1.1" id="Layer_1" xmlns="http://www.w3.org/2000/svg" xmlns:xlink="http://www.w3.org/1999/xlink" x="0px" y="0px"
	 viewBox="0 0 367 76.2" style="enable-background:new 0 0 367 76.2;" xml:space="preserve">
<style type="text/css">
	.st0{fill:#F8981D;}
	.st1{fill:#0B62A0;}
	.st2{fill-rule:evenodd;clip-rule:evenodd;fill:#D2812B;}
	.st3{fill-rule:evenodd;clip-rule:evenodd;fill:url(#SVGID_1_);}
	.st4{fill-rule:evenodd;clip-rule:evenodd;fill:url(#SVGID_2_);}
	.st5{fill-rule:evenodd;clip-rule:evenodd;fill:url(#SVGID_3_);}
	.st6{fill-rule:evenodd;clip-rule:evenodd;fill:#F8981D;}
	.st7{fill:url(#SVGID_4_);}
	.st8{fill-rule:evenodd;clip-rule:evenodd;fill:url(#SVGID_5_);}
	.st9{fill-rule:evenodd;clip-rule:evenodd;fill:url(#SVGID_6_);}
	.st10{fill-rule:evenodd;clip-rule:evenodd;fill:url(#SVGID_7_);}
	.st11{fill:url(#SVGID_8_);}
	.st12{fill:#525252;}
	.st13{fill:#9B9B9B;}
	.st14{fill-rule:evenodd;clip-rule:evenodd;fill:#7F7F7F;}
	.st15{fill-rule:evenodd;clip-rule:evenodd;fill:url(#SVGID_9_);}
	.st16{fill-rule:evenodd;clip-rule:evenodd;fill:url(#SVGID_10_);}
	.st17{fill-rule:evenodd;clip-rule:evenodd;fill:url(#SVGID_11_);}
	.st18{fill-rule:evenodd;clip-rule:evenodd;fill:#9B9B9B;}
	.st19{fill:url(#SVGID_12_);}
	.st20{fill:#020202;}
	.st21{fill-rule:evenodd;clip-rule:evenodd;fill:#020202;}
	.st22{fill:url(#SVGID_13_);}
	.st23{fill-rule:evenodd;clip-rule:evenodd;fill:url(#SVGID_14_);}
	.st24{fill-rule:evenodd;clip-rule:evenodd;fill:url(#SVGID_15_);}
	.st25{fill-rule:evenodd;clip-rule:evenodd;fill:url(#SVGID_16_);}
	.st26{fill:url(#SVGID_17_);}
	.st27{fill-rule:evenodd;clip-rule:evenodd;fill:url(#SVGID_18_);}
	.st28{fill-rule:evenodd;clip-rule:evenodd;}
	.st29{fill:url(#SVGID_19_);}
	.st30{fill-rule:evenodd;clip-rule:evenodd;fill:url(#SVGID_20_);}
	.st31{fill-rule:evenodd;clip-rule:evenodd;fill:url(#SVGID_21_);}
	.st32{fill-rule:evenodd;clip-rule:evenodd;fill:url(#SVGID_22_);}
	.st33{fill:url(#SVGID_23_);}
	.st34{fill-rule:evenodd;clip-rule:evenodd;fill:url(#SVGID_24_);}
	.st35{fill-rule:evenodd;clip-rule:evenodd;fill:url(#SVGID_25_);}
	.st36{fill-rule:evenodd;clip-rule:evenodd;fill:url(#SVGID_26_);}
	.st37{fill:url(#SVGID_27_);}
	.st38{fill:url(#SVGID_28_);}
	.st39{fill:url(#SVGID_29_);}
	.st40{fill-rule:evenodd;clip-rule:evenodd;fill:url(#SVGID_30_);}
	.st41{fill:url(#SVGID_31_);}
	.st42{fill:url(#SVGID_32_);}
</style>
<g>
	<g>
		<path class="st0" d="M108.5,68.2c-1.2,0-2-0.6-2.5-1.2v1.1h-2.3v-11h2.3v4.1c0.6-0.8,1.3-1.3,2.5-1.3c1.9,0,3.7,1.5,3.7,4.2v0
			C112.1,66.8,110.4,68.2,108.5,68.2z M109.9,64.1c0-1.3-0.9-2.2-2-2.2c-1.1,0-2,0.9-2,2.2v0c0,1.3,0.9,2.2,2,2.2
			C109,66.3,109.9,65.4,109.9,64.1L109.9,64.1z"/>
		<path class="st0" d="M118.5,62.3c-1.5,0-2.4,0.9-2.4,2.8v3h-2.3v-8h2.3v1.6c0.5-1.1,1.2-1.8,2.6-1.8v2.4H118.5z"/>
		<path class="st0" d="M120.1,59.2v-2h2.4v2H120.1z M120.2,68.1v-8h2.3v8H120.2z"/>
		<path class="st0" d="M129.7,68.1v-4.5c0-1.1-0.5-1.6-1.4-1.6c-0.9,0-1.4,0.6-1.4,1.6v4.5h-2.3v-8h2.3v1.1c0.5-0.7,1.2-1.3,2.4-1.3
			c1.7,0,2.7,1.1,2.7,3v5.2H129.7z"/>
		<path class="st0" d="M137.5,70.5c-1.3,0-2.5-0.3-3.6-0.8l0.8-1.7c0.8,0.5,1.7,0.7,2.7,0.7c1.6,0,2.3-0.8,2.3-2.2v-0.4
			c-0.7,0.8-1.4,1.3-2.6,1.3c-1.9,0-3.6-1.4-3.6-3.8v0c0-2.4,1.7-3.8,3.6-3.8c1.2,0,2,0.5,2.6,1.2v-1.1h2.3v6.2
			C142,69.3,140.5,70.5,137.5,70.5z M139.8,63.7c0-1.1-0.9-1.9-2-1.9c-1.1,0-2,0.8-2,1.9v0c0,1.1,0.8,1.9,2,1.9
			C138.9,65.5,139.8,64.8,139.8,63.7L139.8,63.7z"/>
		<path class="st0" d="M144.1,59.2v-2h2.4v2H144.1z M144.1,68.1v-8h2.3v8H144.1z"/>
		<path class="st0" d="M153.6,68.1v-4.5c0-1.1-0.5-1.6-1.4-1.6c-0.9,0-1.4,0.6-1.4,1.6v4.5h-2.3v-8h2.3v1.1c0.5-0.7,1.2-1.3,2.4-1.3
			c1.7,0,2.7,1.1,2.7,3v5.2H153.6z"/>
		<path class="st0" d="M161.5,70.5c-1.3,0-2.5-0.3-3.6-0.8l0.8-1.7c0.8,0.5,1.7,0.7,2.7,0.7c1.6,0,2.3-0.8,2.3-2.2v-0.4
			c-0.7,0.8-1.4,1.3-2.6,1.3c-1.9,0-3.6-1.4-3.6-3.8v0c0-2.4,1.7-3.8,3.6-3.8c1.2,0,2,0.5,2.6,1.2v-1.1h2.3v6.2
			C166,69.3,164.5,70.5,161.5,70.5z M163.7,63.7c0-1.1-0.9-1.9-2-1.9c-1.1,0-2,0.8-2,1.9v0c0,1.1,0.8,1.9,2,1.9
			C162.9,65.5,163.7,64.8,163.7,63.7L163.7,63.7z"/>
		<path class="st0" d="M176,59c-0.5,0-0.8,0.3-0.8,0.9v0.3h1.8V62h-1.8v6.1h-2.3V62h-0.9v-1.9h0.9v-0.5c0-1.8,0.9-2.6,2.5-2.6
			c0.7,0,1.2,0.1,1.6,0.2v1.9C176.7,59,176.3,59,176,59z"/>
		<path class="st0" d="M182.9,62.3c-1.5,0-2.5,0.9-2.5,2.8v3h-2.3v-8h2.3v1.6c0.5-1.1,1.2-1.8,2.6-1.8v2.4H182.9z"/>
		<path class="st0" d="M191.9,64.9h-5.6c0.2,1,0.9,1.6,2,1.6c0.8,0,1.3-0.2,2-0.8l1.3,1.2c-0.8,0.9-1.8,1.5-3.3,1.5
			c-2.4,0-4.2-1.7-4.2-4.2v0c0-2.3,1.6-4.2,4-4.2c2.7,0,3.9,2.1,3.9,4.4v0C192,64.5,191.9,64.7,191.9,64.9z M188,61.7
			c-0.9,0-1.6,0.7-1.7,1.7h3.4C189.6,62.4,189,61.7,188,61.7z"/>
		<path class="st0" d="M201.1,64.9h-5.6c0.2,1,0.9,1.6,2,1.6c0.8,0,1.3-0.2,2-0.8l1.3,1.2c-0.8,0.9-1.8,1.5-3.3,1.5
			c-2.4,0-4.2-1.7-4.2-4.2v0c0-2.3,1.6-4.2,4-4.2c2.7,0,3.9,2.1,3.9,4.4v0C201.1,64.5,201.1,64.7,201.1,64.9z M197.2,61.7
			c-0.9,0-1.6,0.7-1.7,1.7h3.4C198.8,62.4,198.2,61.7,197.2,61.7z"/>
		<path class="st0" d="M208.6,68.1v-1.2c-0.6,0.8-1.3,1.3-2.5,1.3c-1.9,0-3.7-1.5-3.7-4.2v0c0-2.7,1.8-4.2,3.7-4.2
			c1.2,0,2,0.6,2.5,1.2v-4h2.3v11H208.6z M208.7,64.1c0-1.3-0.9-2.2-2-2.2c-1.1,0-2,0.9-2,2.2v0c0,1.3,0.9,2.2,2,2.2
			C207.8,66.3,208.7,65.4,208.7,64.1L208.7,64.1z"/>
		<path class="st0" d="M216.9,68.3c-2.5,0-4.3-1.8-4.3-4.2v0c0-2.3,1.9-4.2,4.4-4.2c2.5,0,4.3,1.8,4.3,4.2v0
			C221.3,66.4,219.4,68.3,216.9,68.3z M219,64.1c0-1.2-0.9-2.2-2.1-2.2c-1.3,0-2.1,1-2.1,2.2v0c0,1.2,0.9,2.2,2.1,2.2
			C218.2,66.3,219,65.3,219,64.1L219,64.1z"/>
		<path class="st0" d="M232.9,68.1v-4.5c0-1.1-0.5-1.6-1.3-1.6c-0.9,0-1.4,0.6-1.4,1.6v4.5h-2.3v-4.5c0-1.1-0.5-1.6-1.3-1.6
			c-0.9,0-1.4,0.6-1.4,1.6v4.5h-2.3v-8h2.3v1.1c0.5-0.7,1.2-1.3,2.4-1.3c1.1,0,1.8,0.5,2.3,1.3c0.7-0.8,1.5-1.3,2.6-1.3
			c1.7,0,2.7,1,2.7,3v5.2H232.9z"/>
		<path class="st0" d="M246.3,68.1v-0.9c-0.6,0.6-1.3,1-2.4,1c-1.5,0-2.8-0.9-2.8-2.5v0c0-1.8,1.3-2.6,3.2-2.6c0.8,0,1.4,0.1,2,0.3
			v-0.1c0-0.9-0.6-1.5-1.7-1.5c-0.9,0-1.5,0.2-2.2,0.4l-0.6-1.7c0.9-0.4,1.8-0.6,3.1-0.6c2.5,0,3.6,1.3,3.6,3.5v4.7H246.3z
			 M246.4,64.9c-0.4-0.2-0.9-0.3-1.5-0.3c-1,0-1.6,0.4-1.6,1.1v0c0,0.6,0.5,1,1.2,1c1.1,0,1.8-0.6,1.8-1.4V64.9z"/>
		<path class="st0" d="M255.6,68.1v-4.5c0-1.1-0.5-1.6-1.4-1.6c-0.9,0-1.4,0.6-1.4,1.6v4.5h-2.3v-8h2.3v1.1c0.5-0.7,1.2-1.3,2.4-1.3
			c1.7,0,2.7,1.1,2.7,3v5.2H255.6z"/>
		<path class="st0" d="M265.6,68.1v-1.2c-0.6,0.8-1.3,1.3-2.5,1.3c-1.9,0-3.7-1.5-3.7-4.2v0c0-2.7,1.8-4.2,3.7-4.2
			c1.2,0,2,0.6,2.5,1.2v-4h2.3v11H265.6z M265.7,64.1c0-1.3-0.9-2.2-2-2.2c-1.1,0-2,0.9-2,2.2v0c0,1.3,0.9,2.2,2,2.2
			C264.8,66.3,265.7,65.4,265.7,64.1L265.7,64.1z"/>
		<path class="st0" d="M281.9,64.9h-5.6c0.2,1,0.9,1.6,2,1.6c0.8,0,1.3-0.2,2-0.8l1.3,1.2c-0.8,0.9-1.8,1.5-3.3,1.5
			c-2.4,0-4.2-1.7-4.2-4.2v0c0-2.3,1.6-4.2,4-4.2c2.7,0,3.9,2.1,3.9,4.4v0C281.9,64.5,281.9,64.7,281.9,64.9z M278,61.7
			c-0.9,0-1.6,0.7-1.7,1.7h3.4C279.6,62.4,279,61.7,278,61.7z"/>
		<path class="st0" d="M288.3,68.1v-0.9c-0.6,0.6-1.3,1-2.4,1c-1.5,0-2.8-0.9-2.8-2.5v0c0-1.8,1.3-2.6,3.2-2.6c0.8,0,1.4,0.1,2,0.3
			v-0.1c0-0.9-0.6-1.5-1.7-1.5c-0.9,0-1.5,0.2-2.2,0.4l-0.6-1.7c0.9-0.4,1.8-0.6,3.1-0.6c2.5,0,3.6,1.3,3.6,3.5v4.7H288.3z
			 M288.4,64.9c-0.4-0.2-0.9-0.3-1.5-0.3c-1,0-1.6,0.4-1.6,1.1v0c0,0.6,0.5,1,1.2,1c1.1,0,1.8-0.6,1.8-1.4V64.9z"/>
		<path class="st0" d="M295.3,68.2c-1.1,0-2.4-0.4-3.5-1.2l1-1.5c0.9,0.6,1.8,1,2.5,1c0.7,0,1-0.2,1-0.6v0c0-0.5-0.8-0.7-1.7-0.9
			c-1.1-0.3-2.4-0.9-2.4-2.4v0c0-1.6,1.3-2.6,2.9-2.6c1,0,2.1,0.3,3,0.9l-0.9,1.6c-0.8-0.5-1.6-0.8-2.2-0.8c-0.6,0-0.8,0.2-0.8,0.6
			v0c0,0.4,0.8,0.7,1.6,1c1.1,0.4,2.4,0.9,2.4,2.4v0C298.4,67.4,297,68.2,295.3,68.2z"/>
		<path class="st0" d="M307.5,64.9h-5.6c0.2,1,0.9,1.6,2,1.6c0.8,0,1.3-0.2,2-0.8l1.3,1.2c-0.7,0.9-1.8,1.5-3.3,1.5
			c-2.4,0-4.2-1.7-4.2-4.2v0c0-2.3,1.6-4.2,4-4.2c2.7,0,3.9,2.1,3.9,4.4v0C307.5,64.5,307.5,64.7,307.5,64.9z M303.6,61.7
			c-0.9,0-1.6,0.7-1.7,1.7h3.4C305.2,62.4,304.6,61.7,303.6,61.7z"/>
		<path class="st0" d="M316.4,68.2c-1.4,0-2.3-0.6-2.3-2.4V62h-1v-2h1V58h2.3v2.1h1.9v2h-1.9v3.4c0,0.5,0.2,0.8,0.7,0.8
			c0.4,0,0.8-0.1,1.1-0.3v1.8C317.7,68.1,317.2,68.2,316.4,68.2z"/>
		<path class="st0" d="M323.8,68.3c-2.5,0-4.3-1.8-4.3-4.2v0c0-2.3,1.9-4.2,4.4-4.2c2.5,0,4.3,1.8,4.3,4.2v0
			C328.2,66.4,326.3,68.3,323.8,68.3z M326,64.1c0-1.2-0.9-2.2-2.1-2.2c-1.3,0-2.1,1-2.1,2.2v0c0,1.2,0.9,2.2,2.1,2.2
			C325.2,66.3,326,65.3,326,64.1L326,64.1z"/>
		<path class="st0" d="M334.4,68.1v-11h2.3v11H334.4z"/>
		<path class="st0" d="M338.9,59.2v-2h2.4v2H338.9z M338.9,68.1v-8h2.3v8H338.9z"/>
		<path class="st0" d="M346.8,59c-0.5,0-0.8,0.3-0.8,0.9v0.3h1.8V62H346v6.1h-2.3V62h-0.9v-1.9h0.9v-0.5c0-1.8,0.9-2.6,2.5-2.6
			c0.7,0,1.2,0.1,1.6,0.2v1.9C347.5,59,347.2,59,346.8,59z"/>
		<path class="st0" d="M356.6,64.9H351c0.2,1,0.9,1.6,2,1.6c0.8,0,1.3-0.2,2-0.8l1.3,1.2c-0.8,0.9-1.8,1.5-3.3,1.5
			c-2.4,0-4.2-1.7-4.2-4.2v0c0-2.3,1.6-4.2,4-4.2c2.7,0,3.9,2.1,3.9,4.4v0C356.6,64.5,356.6,64.7,356.6,64.9z M352.7,61.7
			c-0.9,0-1.6,0.7-1.7,1.7h3.4C354.2,62.4,353.6,61.7,352.7,61.7z"/>
	</g>
	<g>
		<path class="st1" d="M80.2,38.3c-3.5,0-5.7,2.1-5.7,6.6v6.9h-5.3V33.1h5.3v3.8c1.1-2.6,2.8-4.3,6-4.1v5.6H80.2z"/>
		<path class="st1" d="M91.8,57.6c-3.1,0-5.9-0.7-8.3-2l1.8-4c1.9,1.1,3.9,1.7,6.3,1.7c3.6,0,5.4-1.8,5.4-5.1v-0.9
			c-1.6,1.9-3.3,3-6.1,3c-4.4,0-8.3-3.2-8.3-8.8v-0.1c0-5.6,4-8.8,8.3-8.8c2.9,0,4.6,1.2,6.1,2.8v-2.5h5.3v14.5
			C102.3,54.7,98.8,57.6,91.8,57.6z M97,41.5c0-2.6-2-4.3-4.6-4.3c-2.6,0-4.6,1.8-4.6,4.3v0.1c0,2.6,2,4.3,4.6,4.3
			C95,45.9,97,44.1,97,41.5L97,41.5z"/>
		<path class="st1" d="M117,51.9v-2c-1.3,1.4-3.1,2.4-5.7,2.4c-3.5,0-6.5-2-6.5-5.8v-0.1c0-4.1,3.1-6,7.6-6c1.9,0,3.3,0.3,4.6,0.8
			v-0.3c0-2.2-1.4-3.4-4-3.4c-2,0-3.5,0.4-5.2,1l-1.3-4.1c2.1-0.9,4.1-1.5,7.3-1.5c5.8,0,8.4,3,8.4,8.1v10.9H117z M117.1,44.3
			c-0.9-0.4-2.1-0.7-3.4-0.7c-2.3,0-3.7,0.9-3.7,2.6v0.1c0,1.4,1.2,2.3,2.9,2.3c2.5,0,4.2-1.4,4.2-3.3V44.3z"/>
		<path class="st1" d="M136.9,51.9V41.4c0-2.5-1.2-3.8-3.2-3.8c-2,0-3.3,1.3-3.3,3.8v10.5H125V33.1h5.3v2.7c1.2-1.6,2.8-3,5.5-3
			c4,0,6.4,2.7,6.4,7v12.2H136.9z"/>
		<path class="st1" d="M145.8,31v-4.7h5.6V31H145.8z M146,51.9V33.1h5.3v18.8H146z"/>
		<path class="st1" d="M155.1,51.9v-3.8l9.7-10.7h-9.4v-4.3h16v3.8l-9.7,10.7h9.7v4.3H155.1z"/>
		<path class="st1" d="M192.4,44.3h-13.1c0.5,2.4,2.2,3.7,4.6,3.7c1.8,0,3.1-0.6,4.6-1.9l3.1,2.7c-1.8,2.2-4.3,3.5-7.7,3.5
			c-5.6,0-9.8-4-9.8-9.7v-0.1c0-5.4,3.8-9.8,9.3-9.8c6.3,0,9.2,4.9,9.2,10.2V43C192.5,43.5,192.4,43.9,192.4,44.3z M183.3,37
			c-2.2,0-3.6,1.6-4.1,4h8C187,38.6,185.6,37,183.3,37z"/>
		<path class="st1" d="M209.6,51.9v-2.7c-1.3,1.8-3.1,3-5.9,3c-4.4,0-8.6-3.4-8.6-9.7v-0.1c0-6.3,4.1-9.7,8.6-9.7
			c2.8,0,4.6,1.3,5.9,2.8v-9.3h5.3v25.6H209.6z M209.7,42.5c0-3.1-2.1-5.2-4.6-5.2c-2.5,0-4.6,2-4.6,5.2v0.1c0,3.1,2.1,5.2,4.6,5.2
			C207.6,47.7,209.7,45.6,209.7,42.5L209.7,42.5z"/>
		<path class="st1" d="M244.8,51.9l-2.2-5.5h-10.4l-2.2,5.5h-5.5L235,27.2h5l10.5,24.7H244.8z M237.4,33.7l-3.3,8h6.5L237.4,33.7z"
			/>
		<path class="st1" d="M259.3,52.2c-3.3,0-5.5-1.3-5.5-5.6v-8.9h-2.2v-4.6h2.2v-4.8h5.3v4.8h4.4v4.6h-4.4v8c0,1.2,0.5,1.8,1.7,1.8
			c1,0,1.9-0.2,2.6-0.7v4.3C262.4,51.8,261.1,52.2,259.3,52.2z"/>
		<path class="st1" d="M274.9,51.9V27.3h5.4V47h12.2v4.9H274.9z"/>
		<path class="st1" d="M307.1,51.9v-2c-1.3,1.4-3.1,2.4-5.7,2.4c-3.5,0-6.5-2-6.5-5.8v-0.1c0-4.1,3.1-6,7.6-6c1.9,0,3.3,0.3,4.6,0.8
			v-0.3c0-2.2-1.4-3.4-4-3.4c-2,0-3.5,0.4-5.2,1l-1.3-4.1c2.1-0.9,4.1-1.5,7.3-1.5c5.8,0,8.4,3,8.4,8.1v10.9H307.1z M307.2,44.3
			c-0.9-0.4-2.1-0.7-3.4-0.7c-2.3,0-3.7,0.9-3.7,2.6v0.1c0,1.4,1.2,2.3,2.9,2.3c2.5,0,4.2-1.4,4.2-3.3V44.3z"/>
		<path class="st1" d="M323.4,52.2c-2.6,0-5.6-0.9-8.1-2.8l2.3-3.5c2,1.5,4.2,2.2,5.9,2.2c1.5,0,2.2-0.6,2.2-1.4v-0.1
			c0-1.2-1.8-1.5-3.9-2.2c-2.6-0.8-5.6-2-5.6-5.6v-0.1c0-3.8,3.1-6,6.9-6c2.4,0,5,0.8,7,2.2l-2,3.7c-1.9-1.1-3.7-1.8-5.1-1.8
			c-1.3,0-2,0.6-2,1.3v0.1c0,1.1,1.8,1.5,3.8,2.2c2.6,0.9,5.7,2.1,5.7,5.6v0.1C330.6,50.3,327.5,52.2,323.4,52.2z"/>
		<path class="st1" d="M340.4,52.2c-3.3,0-5.5-1.3-5.5-5.6v-8.9h-2.2v-4.6h2.2v-4.8h5.3v4.8h4.4v4.6h-4.4v8c0,1.2,0.5,1.8,1.7,1.8
			c1,0,1.9-0.2,2.6-0.7v4.3C343.5,51.8,342.2,52.2,340.4,52.2z"/>
	</g>
	<path class="st1" d="M350.7,49.5c0-1,0.4-1.8,1.1-2.5c1-0.9,1.9-1.3,2.9-1.3c1.1,0,2,0.4,2.7,1.1c0.8,0.8,1.1,1.7,1.1,2.8
		c0,1.1-0.4,2-1.1,2.8c-0.7,0.7-1.6,1.1-2.7,1.1c-1.2,0-2.1-0.4-2.9-1.2C351,51.5,350.7,50.6,350.7,49.5z M355.5,42.5
		c-0.4,0-1.1,0.1-2,0.1l-1.5-10c-0.5-3.9-0.9-6.8-1.1-8.5c-0.1-1.1-0.1-1.9-0.1-2.5c0-0.1,0-0.4,0.1-1c0.1-1.1,0.3-1.9,0.8-2.4
		c0.5-0.5,1.1-0.8,2-0.9c0.5-0.1,0.8-0.2,0.9-0.2c1,0,1.8,0.4,2.5,1.1c0.7,0.7,1,1.8,1,3.1c0,1.2-0.1,3.3-0.4,6.2l-1.2,8.7
		C356.2,38.7,355.9,40.8,355.5,42.5z"/>
	<g>
		<g>
			<path class="st1" d="M35.6,68.6C18.8,68.6,5.2,55,5.2,38.2c0-16.7,13.6-30.4,30.4-30.4c16.7,0,30.4,13.6,30.4,30.4
				C65.9,55,52.3,68.6,35.6,68.6z M35.6,15c-12.8,0-23.2,10.4-23.2,23.2c0,12.8,10.4,23.2,23.2,23.2c12.8,0,23.2-10.4,23.2-23.2
				C58.8,25.4,48.4,15,35.6,15z"/>
			<linearGradient id="SVGID_1_" gradientUnits="userSpaceOnUse" x1="37.8539" y1="56.6398" x2="38.1944" y2="56.9804">
				<stop  offset="0" style="stop-color:#CA832A"/>
				<stop  offset="9.189472e-02" style="stop-color:#D2964A"/>
				<stop  offset="0.2655" style="stop-color:#E0B580"/>
				<stop  offset="0.4351" style="stop-color:#EBD0AE"/>
				<stop  offset="0.5965" style="stop-color:#F4E4D1"/>
				<stop  offset="0.7477" style="stop-color:#FAF3EA"/>
				<stop  offset="0.8848" style="stop-color:#FEFCFA"/>
				<stop  offset="0.9952" style="stop-color:#FFFFFF"/>
			</linearGradient>
			<polyline class="st3" points="38.3,56.7 38,57.1 37.7,56.8 			"/>
		</g>
		<path class="st6" d="M35.5,41.2c-3.2-3-9.8-8.3-13.2-11.4c-1.8,2-3.8,4.3-5.7,6.5c5.7,5.4,13.6,14.1,19.7,19.8
			c8.2-9.1,35.7-47.7,36.6-48.9c-0.2-0.1-0.5-0.5-0.8-0.6"/>
		<linearGradient id="SVGID_2_" gradientUnits="userSpaceOnUse" x1="43.3208" y1="43.8969" x2="43.3208" y2="13.8009">
			<stop  offset="0" style="stop-color:#FFFFFF"/>
			<stop  offset="5.636082e-02" style="stop-color:#FDE4C6"/>
			<stop  offset="0.113" style="stop-color:#FCCD95"/>
			<stop  offset="0.1693" style="stop-color:#FABA6C"/>
			<stop  offset="0.224" style="stop-color:#F9AA4C"/>
			<stop  offset="0.2766" style="stop-color:#F9A035"/>
			<stop  offset="0.3264" style="stop-color:#F89928"/>
			<stop  offset="0.3702" style="stop-color:#F89723"/>
			<stop  offset="0.7249" style="stop-color:#F69522"/>
			<stop  offset="0.9245" style="stop-color:#ED8E1E"/>
			<stop  offset="1" style="stop-color:#E8891C"/>
		</linearGradient>
		<path style="fill:url(#SVGID_2_);" d="M23,31.4l12.9,11l-0.9,0l30-27.9l-29,28.9c-0.2,0.2-0.6,0.3-0.9,0.1l0,0L21.7,32.9L23,31.4z
			"/>
	</g>
</g>
</svg>
