<?xml version="1.0" encoding="utf-8"?>
<!-- Generator: Adobe Illustrator 16.0.0, SVG Export Plug-In . SVG Version: 6.00 Build 0)  -->
<!DOCTYPE svg PUBLIC "-//W3C//DTD SVG 1.1//EN" "http://www.w3.org/Graphics/SVG/1.1/DTD/svg11.dtd">
<svg version="1.1" id="Layer_1" xmlns="http://www.w3.org/2000/svg" xmlns:xlink="http://www.w3.org/1999/xlink" x="0px" y="0px"
	 width="368px" height="70.532px" viewBox="0 0 368 70.532" enable-background="new 0 0 368 70.532" xml:space="preserve">
<g>
	<g>
		<path fill="#0B62A0" d="M313.151,45.143h-1.648v-4.429h4.299v3.75c0,3.588-1.713,5.108-4.978,5.367l-0.422-1.649
			C312.376,47.793,313.313,46.792,313.151,45.143z"/>
		<path fill="#0B62A0" d="M320.037,29.3h2.784v13.308h8.329v2.535h-11.113V29.3z"/>
		<path fill="#0B62A0" d="M334.043,29.3h2.785v13.308h8.328v2.535h-11.113V29.3z"/>
		<path fill="#0B62A0" d="M354.502,45.415c-4.617,0-8.058-3.599-8.058-8.171c0-4.526,3.373-8.215,8.17-8.215
			c2.921,0,4.686,1.019,6.201,2.467l-1.787,2.06c-1.268-1.177-2.625-1.97-4.437-1.97c-3.033,0-5.229,2.49-5.229,5.613
			c0,3.124,2.195,5.658,5.229,5.658c1.947,0,3.19-0.792,4.55-2.06l1.788,1.811C359.277,44.329,357.467,45.415,354.502,45.415z"/>
	</g>
	<g>
		<g>
			<path fill="#F8981D" d="M96.924,63.668c-1.29,0-2.087-0.586-2.66-1.273v1.114h-2.42V51.887h2.42v4.316
				c0.59-0.8,1.402-1.387,2.66-1.387c1.992,0,3.885,1.559,3.885,4.413v0.028C100.809,62.11,98.947,63.668,96.924,63.668z
				 M98.389,59.229c0-1.419-0.956-2.359-2.087-2.359c-1.13,0-2.069,0.939-2.069,2.359v0.028c0,1.419,0.939,2.357,2.069,2.357
				c1.131,0,2.087-0.921,2.087-2.357V59.229z"/>
			<path fill="#F8981D" d="M107.588,57.35c-1.607,0-2.593,0.969-2.593,3.007v3.152h-2.423v-8.533h2.423v1.72
				c0.494-1.18,1.288-1.944,2.72-1.88v2.534H107.588z"/>
			<path fill="#F8981D" d="M109.259,54.037v-2.15h2.548v2.15H109.259z M109.322,63.509v-8.533h2.421v8.533H109.322z"/>
			<path fill="#F8981D" d="M119.399,63.509v-4.761c0-1.146-0.54-1.733-1.467-1.733c-0.919,0-1.513,0.586-1.513,1.733v4.761h-2.417
				v-8.533h2.417v1.21c0.562-0.716,1.275-1.37,2.5-1.37c1.833,0,2.902,1.21,2.902,3.167v5.525H119.399z"/>
			<path fill="#F8981D" d="M127.725,66.089c-1.388,0-2.691-0.318-3.774-0.892l0.827-1.815c0.877,0.493,1.752,0.781,2.883,0.781
				c1.656,0,2.438-0.797,2.438-2.324v-0.414c-0.719,0.86-1.498,1.385-2.789,1.385c-1.989,0-3.79-1.451-3.79-3.982v-0.032
				c0-2.547,1.831-3.98,3.79-3.98c1.324,0,2.102,0.557,2.756,1.274v-1.114h2.422v6.606
				C132.486,64.798,130.893,66.089,127.725,66.089z M130.098,58.796c0-1.164-0.908-1.974-2.086-1.974s-2.071,0.81-2.071,1.974v0.032
				c0,1.18,0.894,1.975,2.071,1.975s2.086-0.812,2.086-1.975V58.796z"/>
			<path fill="#F8981D" d="M134.678,54.037v-2.15h2.55v2.15H134.678z M134.741,63.509v-8.533h2.419v8.533H134.741z"/>
			<path fill="#F8981D" d="M144.82,63.509v-4.761c0-1.146-0.543-1.733-1.465-1.733c-0.925,0-1.513,0.586-1.513,1.733v4.761h-2.421
				v-8.533h2.421v1.21c0.56-0.716,1.276-1.37,2.501-1.37c1.831,0,2.896,1.21,2.896,3.167v5.525H144.82z"/>
			<path fill="#F8981D" d="M153.145,66.089c-1.383,0-2.689-0.318-3.774-0.892l0.83-1.815c0.874,0.493,1.751,0.781,2.879,0.781
				c1.658,0,2.437-0.797,2.437-2.324v-0.414c-0.714,0.86-1.494,1.385-2.785,1.385c-1.988,0-3.788-1.451-3.788-3.982v-0.032
				c0-2.547,1.831-3.98,3.788-3.98c1.321,0,2.1,0.557,2.752,1.274v-1.114h2.422v6.606C157.904,64.798,156.312,66.089,153.145,66.089
				z M155.516,58.796c0-1.164-0.906-1.974-2.085-1.974s-2.069,0.81-2.069,1.974v0.032c0,1.18,0.891,1.975,2.069,1.975
				s2.085-0.812,2.085-1.975V58.796z"/>
			<path fill="#F8981D" d="M168.49,53.813c-0.559,0-0.877,0.287-0.877,0.923v0.335h1.957v1.975h-1.926v6.463h-2.418v-6.463h-1.002
				v-1.991h1.002v-0.541c0-1.88,0.938-2.741,2.641-2.741c0.768,0,1.274,0.095,1.722,0.239v2.007
				C169.237,53.892,168.902,53.813,168.49,53.813z"/>
			<path fill="#F8981D" d="M175.895,57.35c-1.609,0-2.599,0.969-2.599,3.007v3.152h-2.418v-8.533h2.418v1.72
				c0.495-1.18,1.289-1.944,2.723-1.88v2.534H175.895z"/>
			<path fill="#F8981D" d="M185.442,60.088h-5.938c0.238,1.098,1.004,1.671,2.086,1.671c0.811,0,1.403-0.257,2.071-0.876
				l1.385,1.227c-0.798,0.985-1.943,1.591-3.487,1.591c-2.562,0-4.46-1.8-4.46-4.411v-0.033c0-2.435,1.738-4.441,4.222-4.441
				c2.849,0,4.154,2.214,4.154,4.633v0.031C185.475,59.721,185.46,59.865,185.442,60.088z M181.32,56.76
				c-1.002,0-1.655,0.716-1.848,1.814h3.648C182.974,57.493,182.34,56.76,181.32,56.76z"/>
			<path fill="#F8981D" d="M195.188,60.088h-5.942c0.239,1.098,1.005,1.671,2.088,1.671c0.811,0,1.399-0.257,2.071-0.876
				l1.383,1.227c-0.797,0.985-1.945,1.591-3.488,1.591c-2.562,0-4.457-1.8-4.457-4.411v-0.033c0-2.435,1.736-4.441,4.22-4.441
				c2.848,0,4.156,2.214,4.156,4.633v0.031C195.218,59.721,195.2,59.865,195.188,60.088z M191.062,56.76
				c-1.003,0-1.657,0.716-1.849,1.814h3.648C192.716,57.493,192.082,56.76,191.062,56.76z"/>
			<path fill="#F8981D" d="M203.159,63.509v-1.224c-0.588,0.796-1.402,1.382-2.662,1.382c-1.989,0-3.882-1.558-3.882-4.411v-0.028
				c0-2.854,1.861-4.413,3.882-4.413c1.293,0,2.087,0.586,2.662,1.274v-4.203h2.421v11.622H203.159z M203.19,59.229
				c0-1.419-0.94-2.359-2.07-2.359c-1.127,0-2.087,0.925-2.087,2.359v0.028c0,1.419,0.96,2.357,2.087,2.357
				c1.13,0,2.07-0.938,2.07-2.357V59.229z"/>
			<path fill="#F8981D" d="M211.914,63.701c-2.642,0-4.603-1.959-4.603-4.411v-0.033c0-2.45,1.976-4.441,4.634-4.441
				c2.645,0,4.603,1.958,4.603,4.413v0.028C216.548,61.712,214.571,63.701,211.914,63.701z M214.157,59.257
				c0-1.257-0.905-2.355-2.243-2.355c-1.387,0-2.213,1.068-2.213,2.327v0.028c0,1.261,0.905,2.357,2.244,2.357
				c1.385,0,2.212-1.063,2.212-2.324V59.257z"/>
			<path fill="#F8981D" d="M228.886,63.509v-4.761c0-1.146-0.512-1.733-1.419-1.733S226,57.602,226,58.749v4.761h-2.416v-4.761
				c0-1.146-0.513-1.733-1.421-1.733c-0.903,0-1.462,0.586-1.462,1.733v4.761h-2.42v-8.533h2.42v1.21
				c0.559-0.716,1.287-1.37,2.515-1.37c1.114,0,1.957,0.494,2.405,1.354c0.748-0.876,1.638-1.354,2.803-1.354
				c1.796,0,2.881,1.083,2.881,3.138v5.555H228.886z"/>
			<path fill="#F8981D" d="M243.145,63.509v-0.922c-0.588,0.653-1.4,1.081-2.582,1.081c-1.606,0-2.928-0.921-2.928-2.609v-0.033
				c0-1.861,1.416-2.723,3.44-2.723c0.859,0,1.481,0.145,2.087,0.35v-0.144c0-1.003-0.622-1.559-1.831-1.559
				c-0.927,0-1.577,0.176-2.356,0.46l-0.604-1.846c0.937-0.413,1.857-0.686,3.31-0.686c2.643,0,3.806,1.37,3.806,3.679v4.951
				H243.145z M243.192,60.072c-0.412-0.191-0.958-0.32-1.545-0.32c-1.035,0-1.67,0.416-1.67,1.179v0.034
				c0,0.65,0.539,1.032,1.318,1.032c1.131,0,1.896-0.619,1.896-1.495V60.072z"/>
			<path fill="#F8981D" d="M252.951,63.509v-4.761c0-1.146-0.543-1.733-1.466-1.733c-0.924,0-1.51,0.586-1.51,1.733v4.761h-2.423
				v-8.533h2.423v1.21c0.555-0.716,1.273-1.37,2.497-1.37c1.831,0,2.898,1.21,2.898,3.167v5.525H252.951z"/>
			<path fill="#F8981D" d="M263.614,63.509v-1.224c-0.585,0.796-1.4,1.382-2.66,1.382c-1.988,0-3.882-1.558-3.882-4.411v-0.028
				c0-2.854,1.861-4.413,3.882-4.413c1.29,0,2.087,0.586,2.66,1.274v-4.203h2.421v11.622H263.614z M263.648,59.229
				c0-1.419-0.94-2.359-2.07-2.359c-1.129,0-2.087,0.925-2.087,2.359v0.028c0,1.419,0.958,2.357,2.087,2.357
				c1.13,0,2.07-0.938,2.07-2.357V59.229z"/>
			<path fill="#F8981D" d="M280.87,60.088h-5.939c0.239,1.098,1.004,1.671,2.087,1.671c0.811,0,1.399-0.257,2.07-0.876l1.382,1.227
				c-0.798,0.985-1.94,1.591-3.483,1.591c-2.562,0-4.458-1.8-4.458-4.411v-0.033c0-2.435,1.735-4.441,4.22-4.441
				c2.846,0,4.155,2.214,4.155,4.633v0.031C280.903,59.721,280.885,59.865,280.87,60.088z M276.748,56.76
				c-1.006,0-1.657,0.716-1.85,1.814h3.646C278.403,57.493,277.766,56.76,276.748,56.76z"/>
			<path fill="#F8981D" d="M287.683,63.509v-0.922c-0.59,0.653-1.401,1.081-2.579,1.081c-1.607,0-2.926-0.921-2.926-2.609v-0.033
				c0-1.861,1.412-2.723,3.438-2.723c0.858,0,1.477,0.145,2.082,0.35v-0.144c0-1.003-0.62-1.559-1.831-1.559
				c-0.921,0-1.578,0.176-2.357,0.46l-0.604-1.846c0.941-0.413,1.864-0.686,3.312-0.686c2.646,0,3.807,1.37,3.807,3.679v4.951
				H287.683z M287.731,60.072c-0.413-0.191-0.953-0.32-1.542-0.32c-1.034,0-1.675,0.416-1.675,1.179v0.034
				c0,0.65,0.541,1.032,1.321,1.032c1.134,0,1.896-0.619,1.896-1.495V60.072z"/>
			<path fill="#F8981D" d="M295.082,63.668c-1.192,0-2.529-0.396-3.662-1.287l1.036-1.592c0.929,0.668,1.894,1.018,2.692,1.018
				c0.703,0,1.017-0.255,1.017-0.638v-0.031c0-0.523-0.828-0.7-1.764-0.987c-1.197-0.35-2.554-0.906-2.554-2.563v-0.033
				c0-1.733,1.403-2.707,3.125-2.707c1.082,0,2.264,0.364,3.184,0.987l-0.92,1.67c-0.848-0.49-1.692-0.794-2.311-0.794
				c-0.589,0-0.891,0.255-0.891,0.589v0.033c0,0.476,0.812,0.699,1.734,1.019c1.192,0.396,2.577,0.972,2.577,2.531v0.032
				C298.347,62.811,296.929,63.668,295.082,63.668z"/>
			<path fill="#F8981D" d="M307.996,60.088h-5.939c0.237,1.098,1.001,1.671,2.083,1.671c0.813,0,1.404-0.257,2.071-0.876
				l1.385,1.227c-0.793,0.985-1.939,1.591-3.487,1.591c-2.562,0-4.457-1.8-4.457-4.411v-0.033c0-2.435,1.736-4.441,4.219-4.441
				c2.847,0,4.156,2.214,4.156,4.633v0.031C308.026,59.721,308.011,59.865,307.996,60.088z M303.87,56.76
				c-1.004,0-1.656,0.716-1.846,1.814h3.645C305.525,57.493,304.889,56.76,303.87,56.76z"/>
			<path fill="#F8981D" d="M317.446,63.655c-1.479,0-2.481-0.591-2.481-2.566v-4.043h-1.02v-2.07h1.02v-2.183h2.421v2.183h2.006
				v2.07h-2.006v3.647c0,0.556,0.237,0.829,0.78,0.829c0.443,0,0.843-0.115,1.193-0.306v1.944
				C318.851,63.464,318.262,63.655,317.446,63.655z"/>
			<path fill="#F8981D" d="M325.345,63.701c-2.644,0-4.604-1.959-4.604-4.411v-0.033c0-2.45,1.977-4.441,4.639-4.441
				c2.638,0,4.6,1.958,4.6,4.413v0.028C329.979,61.712,328.001,63.701,325.345,63.701z M327.587,59.257
				c0-1.257-0.907-2.355-2.242-2.355c-1.39,0-2.214,1.068-2.214,2.327v0.028c0,1.261,0.903,2.357,2.248,2.357
				c1.383,0,2.208-1.063,2.208-2.324V59.257z"/>
			<path fill="#F8981D" d="M336.583,63.509V51.887h2.42v11.622H336.583z"/>
			<path fill="#F8981D" d="M341.31,54.037v-2.15h2.549v2.15H341.31z M341.373,63.509v-8.533h2.421v8.533H341.373z"/>
			<path fill="#F8981D" d="M349.729,53.813c-0.556,0-0.874,0.287-0.874,0.923v0.335h1.961v1.975h-1.928v6.463h-2.423v-6.463h-0.999
				v-1.991h0.999v-0.541c0-1.88,0.94-2.741,2.646-2.741c0.764,0,1.271,0.095,1.72,0.239v2.007
				C350.479,53.892,350.146,53.813,349.729,53.813z"/>
			<path fill="#F8981D" d="M360.047,60.088h-5.939c0.239,1.098,1.002,1.671,2.083,1.671c0.813,0,1.404-0.257,2.071-0.876
				l1.386,1.227c-0.795,0.985-1.941,1.591-3.486,1.591c-2.565,0-4.46-1.8-4.46-4.411v-0.033c0-2.435,1.738-4.441,4.218-4.441
				c2.854,0,4.159,2.214,4.159,4.633v0.031C360.078,59.721,360.062,59.865,360.047,60.088z M355.919,56.76
				c-1.001,0-1.654,0.716-1.844,1.814h3.647C357.581,57.493,356.941,56.76,355.919,56.76z"/>
		</g>
		<g>
			<path fill="#0B62A0" d="M72.023,35.639c-2.99,0-4.828,1.806-4.828,5.595v5.863h-4.5v-15.87h4.5v3.199
				c0.92-2.192,2.4-3.613,5.064-3.495v4.708H72.023z"/>
			<path fill="#0B62A0" d="M81.797,51.895c-2.576,0-5.004-0.593-7.018-1.659l1.539-3.376c1.628,0.918,3.258,1.452,5.36,1.452
				c3.079,0,4.529-1.482,4.529-4.324V43.22c-1.332,1.598-2.783,2.576-5.183,2.576c-3.7,0-7.045-2.694-7.045-7.402v-0.061
				c0-4.736,3.403-7.401,7.045-7.401c2.458,0,3.908,1.036,5.123,2.368v-2.072h4.5v12.286C90.648,49.497,87.688,51.895,81.797,51.895
				z M86.208,38.333c0-2.162-1.688-3.671-3.88-3.671c-2.189,0-3.848,1.509-3.848,3.671v0.061c0,2.189,1.658,3.67,3.848,3.67
				c2.192,0,3.88-1.51,3.88-3.67V38.333z"/>
			<path fill="#0B62A0" d="M103.088,47.097V45.38c-1.095,1.213-2.605,2.013-4.796,2.013c-2.991,0-5.448-1.718-5.448-4.855v-0.059
				c0-3.465,2.635-5.063,6.396-5.063c1.598,0,2.754,0.267,3.879,0.65V37.8c0-1.866-1.154-2.901-3.404-2.901
				c-1.72,0-2.933,0.325-4.382,0.86l-1.127-3.435c1.748-0.773,3.465-1.274,6.158-1.274c4.916,0,7.077,2.547,7.077,6.84v9.208
				H103.088z M103.177,40.703c-0.769-0.355-1.776-0.592-2.87-0.592c-1.926,0-3.111,0.769-3.111,2.191v0.059
				c0,1.214,1.008,1.924,2.458,1.924c2.103,0,3.523-1.155,3.523-2.784V40.703z"/>
			<path fill="#0B62A0" d="M119.879,47.097v-8.853c0-2.131-1.006-3.227-2.725-3.227c-1.717,0-2.812,1.096-2.812,3.227v8.853h-4.501
				v-15.87h4.501v2.249c1.037-1.332,2.369-2.545,4.649-2.545c3.405,0,5.39,2.249,5.39,5.893v10.273H119.879z"/>
			<path fill="#0B62A0" d="M127.433,29.481v-3.999h4.737v3.999H127.433z M127.551,47.097v-15.87h4.501v15.87H127.551z"/>
			<path fill="#0B62A0" d="M135.25,47.097V43.93l8.202-9.062h-7.935v-3.64h13.531v3.167l-8.232,9.062h8.232v3.641H135.25z"/>
			<path fill="#0B62A0" d="M166.756,40.732h-11.043c0.445,2.043,1.865,3.108,3.879,3.108c1.51,0,2.606-0.474,3.849-1.629l2.577,2.28
				c-1.482,1.836-3.613,2.96-6.486,2.96c-4.766,0-8.291-3.346-8.291-8.201v-0.058c0-4.531,3.229-8.261,7.848-8.261
				c5.301,0,7.729,4.116,7.729,8.616v0.06C166.816,40.049,166.785,40.315,166.756,40.732z M159.088,34.543
				c-1.864,0-3.078,1.333-3.435,3.375h6.781C162.167,35.906,160.982,34.543,159.088,34.543z"/>
			<path fill="#0B62A0" d="M181.327,47.097v-2.279c-1.095,1.481-2.606,2.575-4.944,2.575c-3.701,0-7.226-2.902-7.226-8.201v-0.061
				c0-5.299,3.466-8.2,7.226-8.2c2.399,0,3.877,1.095,4.944,2.368v-7.817h4.5v21.615H181.327z M181.387,39.131
				c0-2.634-1.747-4.382-3.851-4.382c-2.101,0-3.877,1.719-3.877,4.382v0.061c0,2.635,1.776,4.382,3.877,4.382
				c2.104,0,3.851-1.747,3.851-4.382V39.131z"/>
			<path fill="#0B62A0" d="M211.029,47.097l-1.896-4.649h-8.764l-1.896,4.649h-4.648l8.883-20.875h4.206l8.883,20.875H211.029z
				 M204.751,31.7l-2.752,6.722h5.509L204.751,31.7z"/>
			<path fill="#0B62A0" d="M223.292,47.365c-2.757,0-4.619-1.096-4.619-4.769v-7.52h-1.896v-3.849h1.896V27.17h4.499v4.057h3.73
				v3.849h-3.73v6.78c0,1.036,0.444,1.54,1.452,1.54c0.829,0,1.566-0.208,2.22-0.562v3.612
				C225.898,47.01,224.801,47.365,223.292,47.365z"/>
			<path fill="#0B62A0" d="M236.439,47.097V26.372H241v16.58h10.333v4.145H236.439z"/>
			<path fill="#0B62A0" d="M263.596,47.097V45.38c-1.096,1.213-2.605,2.013-4.798,2.013c-2.992,0-5.448-1.718-5.448-4.855v-0.059
				c0-3.465,2.636-5.063,6.396-5.063c1.599,0,2.754,0.267,3.877,0.65V37.8c0-1.866-1.154-2.901-3.405-2.901
				c-1.716,0-2.93,0.325-4.383,0.86l-1.123-3.435c1.747-0.773,3.464-1.274,6.159-1.274c4.911,0,7.076,2.547,7.076,6.84v9.208
				H263.596z M263.684,40.703c-0.772-0.355-1.776-0.592-2.872-0.592c-1.927,0-3.11,0.769-3.11,2.191v0.059
				c0,1.214,1.009,1.924,2.459,1.924c2.102,0,3.523-1.155,3.523-2.784V40.703z"/>
			<path fill="#0B62A0" d="M277.394,47.393c-2.218,0-4.706-0.739-6.808-2.397l1.922-2.961c1.72,1.242,3.525,1.896,5.005,1.896
				c1.303,0,1.896-0.474,1.896-1.185v-0.06c0-0.977-1.539-1.304-3.285-1.834c-2.221-0.653-4.738-1.689-4.738-4.768v-0.059
				c0-3.229,2.604-5.034,5.803-5.034c2.015,0,4.205,0.68,5.922,1.835l-1.717,3.108c-1.569-0.916-3.139-1.479-4.293-1.479
				c-1.096,0-1.657,0.474-1.657,1.095v0.059c0,0.888,1.509,1.303,3.226,1.895c2.222,0.74,4.798,1.807,4.798,4.708v0.062
				C283.466,45.795,280.83,47.393,277.394,47.393z"/>
			<path fill="#0B62A0" d="M291.759,47.365c-2.756,0-4.62-1.096-4.62-4.769v-7.52h-1.896v-3.849h1.896V27.17h4.5v4.057h3.73v3.849
				h-3.73v6.78c0,1.036,0.443,1.54,1.453,1.54c0.828,0,1.565-0.208,2.22-0.562v3.612C294.363,47.01,293.267,47.365,291.759,47.365z"
				/>
		</g>
		<path fill="#0B62A0" d="M300.423,45.1c0-0.85,0.298-1.556,0.888-2.12c0.806-0.755,1.617-1.136,2.438-1.136
			c0.896,0,1.661,0.318,2.297,0.955c0.639,0.639,0.96,1.413,0.96,2.324c0,0.927-0.302,1.7-0.9,2.323
			c-0.6,0.621-1.363,0.933-2.287,0.933c-0.973,0-1.78-0.327-2.426-0.977C300.747,46.746,300.423,45.98,300.423,45.1z
			 M304.499,39.156c-0.317,0.032-0.895,0.054-1.729,0.068l-1.299-8.462c-0.455-3.304-0.759-5.707-0.91-7.209
			c-0.075-0.94-0.111-1.639-0.111-2.093c0-0.106,0.027-0.378,0.088-0.817c0.061-0.909,0.293-1.585,0.695-2.024
			c0.401-0.44,0.967-0.697,1.695-0.775c0.411-0.092,0.677-0.136,0.8-0.136c0.832,0,1.535,0.306,2.104,0.922
			c0.567,0.613,0.853,1.48,0.853,2.604c0,1.047-0.12,2.805-0.364,5.277l-0.979,7.347C305.098,35.995,304.82,37.761,304.499,39.156z"
			/>
		<g>
			<g>
				<path fill="#0B62A0" d="M34.309,61.197c-14.143,0-25.643-11.502-25.643-25.64c0-14.142,11.5-25.645,25.643-25.645
					c14.139,0,25.643,11.502,25.643,25.645C59.951,49.695,48.447,61.197,34.309,61.197z M34.309,15.922
					c-10.826,0-19.633,8.81-19.633,19.635c0,10.824,8.807,19.631,19.633,19.631c10.824,0,19.631-8.807,19.631-19.631
					C53.939,24.732,45.133,15.922,34.309,15.922z"/>
				<path fill-rule="evenodd" clip-rule="evenodd" fill="#D2812B" d="M36.388,52.207"/>
				<linearGradient id="SVGID_1_" gradientUnits="userSpaceOnUse" x1="36.2471" y1="51.1147" x2="36.5357" y2="51.4034">
					<stop  offset="0" style="stop-color:#CA832A"/>
					<stop  offset="0.0919" style="stop-color:#D2964A"/>
					<stop  offset="0.2655" style="stop-color:#E0B580"/>
					<stop  offset="0.4351" style="stop-color:#EBD0AE"/>
					<stop  offset="0.5965" style="stop-color:#F4E4D1"/>
					<stop  offset="0.7477" style="stop-color:#FAF3EA"/>
					<stop  offset="0.8848" style="stop-color:#FEFCFA"/>
					<stop  offset="0.9952" style="stop-color:#FFFFFF"/>
				</linearGradient>
				<polyline fill-rule="evenodd" clip-rule="evenodd" fill="url(#SVGID_1_)" points="36.602,51.184 36.4,51.537 36.104,51.257 				
					"/>
				<linearGradient id="SVGID_2_" gradientUnits="userSpaceOnUse" x1="64.9121" y1="16.7891" x2="64.9121" y2="16.7891">
					<stop  offset="0" style="stop-color:#CA832A"/>
					<stop  offset="0.0919" style="stop-color:#D2964A"/>
					<stop  offset="0.2655" style="stop-color:#E0B580"/>
					<stop  offset="0.4351" style="stop-color:#EBD0AE"/>
					<stop  offset="0.5965" style="stop-color:#F4E4D1"/>
					<stop  offset="0.7477" style="stop-color:#FAF3EA"/>
					<stop  offset="0.8848" style="stop-color:#FEFCFA"/>
					<stop  offset="0.9952" style="stop-color:#FFFFFF"/>
				</linearGradient>
				<path fill-rule="evenodd" clip-rule="evenodd" fill="url(#SVGID_2_)" d="M64.912,16.789"/>
				<linearGradient id="SVGID_3_" gradientUnits="userSpaceOnUse" x1="36.2461" y1="50.5117" x2="36.2461" y2="50.5117">
					<stop  offset="0" style="stop-color:#CA832A"/>
					<stop  offset="0.0919" style="stop-color:#D2964A"/>
					<stop  offset="0.2655" style="stop-color:#E0B580"/>
					<stop  offset="0.4351" style="stop-color:#EBD0AE"/>
					<stop  offset="0.5965" style="stop-color:#F4E4D1"/>
					<stop  offset="0.7477" style="stop-color:#FAF3EA"/>
					<stop  offset="0.8848" style="stop-color:#FEFCFA"/>
					<stop  offset="0.9952" style="stop-color:#FFFFFF"/>
				</linearGradient>
				<path fill-rule="evenodd" clip-rule="evenodd" fill="url(#SVGID_3_)" d="M36.246,50.512"/>
			</g>
			<path fill-rule="evenodd" clip-rule="evenodd" fill="#F8981D" d="M34.234,38.075c-2.711-2.508-8.293-6.977-11.15-9.621
				c-1.492,1.66-3.205,3.654-4.855,5.489c4.811,4.52,11.484,11.923,16.621,16.754c6.897-7.648,30.189-40.249,30.896-41.308
				c-0.172-0.078-0.459-0.412-0.636-0.495"/>
			<linearGradient id="SVGID_4_" gradientUnits="userSpaceOnUse" x1="40.8633" y1="40.353" x2="40.8633" y2="14.9361">
				<stop  offset="0" style="stop-color:#FFFFFF"/>
				<stop  offset="0.0564" style="stop-color:#FDE4C6"/>
				<stop  offset="0.113" style="stop-color:#FCCD95"/>
				<stop  offset="0.1693" style="stop-color:#FABA6C"/>
				<stop  offset="0.224" style="stop-color:#F9AA4C"/>
				<stop  offset="0.2766" style="stop-color:#F9A035"/>
				<stop  offset="0.3264" style="stop-color:#F89928"/>
				<stop  offset="0.3702" style="stop-color:#F89723"/>
				<stop  offset="0.7249" style="stop-color:#F69522"/>
				<stop  offset="0.9245" style="stop-color:#ED8E1E"/>
				<stop  offset="1" style="stop-color:#E8891C"/>
			</linearGradient>
			<path fill="url(#SVGID_4_)" d="M23.668,29.776l10.923,9.274l-0.783,0.032L59.13,15.544L34.626,39.934
				c-0.21,0.209-0.54,0.224-0.768,0.044l-0.016-0.013l-11.245-8.882L23.668,29.776z"/>
		</g>
	</g>
</g>
</svg>
